/* XPM */
static char * door_xpm[] = {
"100 100 2 1",
" 	c None",
".	c #0F0F0F",
"                                                                                                    ",
"    ..                   .                   .                  ..                   .              ",
"    ...                 ...                 ..                  ...                 ...             ",
"   ....                ....                ....                .....               ....             ",
"  ......              ......              ......              ......              ......            ",
"  .......             .......             ......              .......             .......           ",
" ........            ........            ........            .........           ........           ",
"..........          ..........          ..........          ..........          ..........          ",
"..........          ..........          ..........          ..........          ..........          ",
"..........          ..........          ..........          ..........          ..........          ",
"..........          ..........          ..........          ..........          ..........          ",
"..........          ..........          ..........          ..........          ..........          ",
"..........          ..........          ..........          ..........          ..........          ",
"..........          ..........          ..........          ..........          ..........          ",
"..........          ..........          ..........          ..........          ..........          ",
"..........          ..........          ..........          ..........          ..........          ",
"..........          ..........          ..........          ..........          ..........          ",
"..........          ..........          ..........          ..........          ..........          ",
"..........          ..........          ..........          ..........          ..........          ",
"..........          ..........          ..........          ..........          ..........          ",
"..........          ..........          ..........          ..........          ..........          ",
"..........          ..........          ..........          ..........          ..........          ",
"..........          ..........          ..........          ..........          ..........          ",
"..........          ..........          ..........          ..........          ..........          ",
"..........          ..........          ..........          ..........          ..........          ",
"..........          ..........          ..........          ..........          ..........          ",
"..........          ..........          ..........          ..........          ..........          ",
"..........          ..........          ..........          ..........          ..........          ",
"..........          ..........          ..........          ..........          ..........          ",
"..........          ..........          ..........          ..........          ..........          ",
"..........          ..........          ..........          ..........          ..........          ",
"..........          ..........          ..........          ..........          ..........          ",
"..........          ..........          ..........          ..........          ..........          ",
"..........          ..........          ..........          ..........          ..........          ",
"..........          ..........          ..........          ..........          ..........          ",
"..........          ..........          ..........          ..........          ..........          ",
"..........          ..........          ..........          ..........          ..........          ",
"..........          ..........          ..........          ..........          ..........          ",
"..........          ..........          ..........          ..........          ..........          ",
"..........          ..........          ..........          ..........          ..........          ",
"..........          ..........          ..........          ..........          ..........          ",
"..........          ..........          ..........          ..........          ..........          ",
"..........          ..........          ..........          ..........          ..........          ",
"..........          ..........          ..........          ..........          ..........          ",
"..........          ..........          ..........          ..........          ..........          ",
"..........          ..........          ..........          ..........          ..........          ",
"..........          ..........          ..........          ..........          ..........          ",
"..........          ..........          ..........          ..........          ..........          ",
"..........          ..........          ..........          ..........          ..........          ",
"..........          ..........          ..........          ..........          ..........          ",
"..........          ..........          ..........          ..........          ..........          ",
"..........          ..........          ..........          ..........          ..........          ",
"..........          ..........          ..........          ..........          ..........          ",
"..........          ..........          ..........          ..........          ..........          ",
"..........          ..........          ..........          ..........          ..........          ",
"..........          ..........          ..........          ..........          ..........          ",
"..........          ..........          ..........          ..........          ..........          ",
"..........          ..........          ..........          ..........          ..........          ",
"..........          ..........          ..........          ..........          ..........          ",
"..........          ..........          ..........          ..........          ..........          ",
"..........          ..........          ..........          ..........          ..........          ",
"..........          ..........          ..........          ..........          ..........          ",
"..........          ..........          ..........          ..........          ..........          ",
"..........          ..........          ..........          ..........          ..........          ",
"..........          ..........          ..........          ..........          ..........          ",
"..........          ..........          ..........          ..........          ..........          ",
"..........          ..........          ..........          ..........          ..........          ",
"..........          ..........          ..........          ..........          ..........          ",
"..........          ..........          ..........          ..........          ..........          ",
"..........          ..........          ..........          ..........          ..........          ",
"..........          ..........          ..........          ..........          ..........          ",
"..........          ..........          ..........          ..........          ..........          ",
"..........          ..........          ..........          ..........          ..........          ",
"..........          ..........          ..........          ..........          ..........          ",
"..........          ..........          ..........          ..........          ..........          ",
"..........          ..........          ..........          ..........          ..........          ",
"..........          ..........          ..........          ..........          ..........          ",
"..........          ..........          ..........          ..........          ..........          ",
"..........          ..........          ..........          ..........          ..........          ",
"..........          ..........          ..........          ..........          ..........          ",
"..........          ..........          ..........          ..........          ..........          ",
"..........          ..........          ..........          ..........          ..........          ",
"..........          ..........          ..........          ..........          ..........          ",
"..........          ..........          ..........          ..........          ..........          ",
"..........          ..........          ..........          ..........          ..........          ",
"..........          ..........          ..........          ..........          ..........          ",
"..........          ..........          ..........          ..........          ..........          ",
"..........          ..........          ..........          ..........          ..........          ",
"..........          ..........          ..........          ..........          ..........          ",
"..........          ..........          ..........          ..........          ..........          ",
"..........          ..........          ..........          ..........          ..........          ",
"..........          ..........          ..........          ..........          ..........          ",
"..........          ..........          ..........          ..........          ..........          ",
"..........          ..........          ..........          ..........          ..........          ",
"..........          ..........          ..........          ..........          ..........          ",
"..........          ..........          ..........          ..........          ..........          ",
"..........          ..........          ..........          ..........          ..........          ",
"..........          ..........          ..........          ..........          ..........          ",
"..........          ..........          ..........          ..........          ..........          ",
"..........          ..........          ..........          ..........          ..........          "};
