/* XPM */
static char * vis_xpm[] = {
"50 50 160 2",
"  	c None",
". 	c #955114",
"+ 	c #8F4300",
"@ 	c #904400",
"# 	c #98561D",
"$ 	c #97571F",
"% 	c #934D10",
"& 	c #924B0C",
"* 	c #924A0A",
"= 	c #914807",
"- 	c #924807",
"; 	c #8F4402",
"> 	c #8D4200",
", 	c #904604",
"' 	c #924909",
") 	c #934A0B",
"! 	c #944D11",
"~ 	c #96541B",
"{ 	c #914908",
"] 	c #8F4401",
"^ 	c #8F4200",
"/ 	c #904502",
"( 	c #924A0B",
"_ 	c #934B0B",
": 	c #934A0A",
"< 	c #944C0D",
"[ 	c #914909",
"} 	c #934C0E",
"| 	c #904503",
"1 	c #914705",
"2 	c #924908",
"3 	c #944F13",
"4 	c #97561E",
"5 	c #914706",
"6 	c #914603",
"7 	c #955217",
"8 	c #97571E",
"9 	c #9F602C",
"0 	c #914400",
"a 	c #955014",
"b 	c #8F4606",
"c 	c #904401",
"d 	c #96531A",
"e 	c #934D11",
"f 	c #8F4503",
"g 	c #995920",
"h 	c #9A5C26",
"i 	c #924C0E",
"j 	c #924A0D",
"k 	c #934C0D",
"l 	c #8E4300",
"m 	c #965219",
"n 	c #96541C",
"o 	c #904300",
"p 	c #924808",
"q 	c #944C0E",
"r 	c #904706",
"s 	c #8E4605",
"t 	c #9F612B",
"u 	c #965116",
"v 	c #904504",
"w 	c #934C0C",
"x 	c #934E12",
"y 	c #914707",
"z 	c #924B0D",
"A 	c #924A0C",
"B 	c #914502",
"C 	c #985822",
"D 	c #945015",
"E 	c #92490B",
"F 	c #944E12",
"G 	c #934E10",
"H 	c #955116",
"I 	c #96541A",
"J 	c #96551C",
"K 	c #914808",
"L 	c #914604",
"M 	c #91490A",
"N 	c #944F12",
"O 	c #965115",
"P 	c #945116",
"Q 	c #8E4200",
"R 	c #97561D",
"S 	c #0D0D0C",
"T 	c #16110E",
"U 	c #0B0A09",
"V 	c #100E0F",
"W 	c #0F0A07",
"X 	c #130C07",
"Y 	c #0E0D0D",
"Z 	c #8D4300",
"` 	c #0C0B0A",
" .	c #0C0A09",
"..	c #8D4402",
"+.	c #0A0A09",
"@.	c #0E0E0D",
"#.	c #8F4502",
"$.	c #965319",
"%.	c #8E490B",
"&.	c #8E4A0C",
"*.	c #8F490A",
"=.	c #914503",
"-.	c #8F4A0C",
";.	c #95551C",
">.	c #131413",
",.	c #945117",
"'.	c #904A0C",
").	c #934F15",
"!.	c #914605",
"~.	c #914D0F",
"{.	c #925018",
"].	c #914F12",
"^.	c #8E490C",
"/.	c #914A0C",
"(.	c #934C0B",
"_.	c #121212",
":.	c #131312",
"<.	c #111010",
"[.	c #914A0B",
"}.	c #121111",
"|.	c #0F0E0D",
"1.	c #1B1918",
"2.	c #110F0E",
"3.	c #100F0E",
"4.	c #924B0E",
"5.	c #955216",
"6.	c #944D0F",
"7.	c #944F11",
"8.	c #975720",
"9.	c #904605",
"0.	c #944D12",
"a.	c #955117",
"b.	c #98571F",
"c.	c #904501",
"d.	c #96551D",
"e.	c #954F14",
"f.	c #97541A",
"g.	c #8F4100",
"h.	c #955016",
"i.	c #92490A",
"j.	c #904606",
"k.	c #934F13",
"l.	c #934E11",
"m.	c #8E4403",
"n.	c #985820",
"o.	c #904705",
"p.	c #924E10",
"q.	c #91480A",
"r.	c #97551D",
"s.	c #904403",
"t.	c #965217",
"u.	c #914809",
"v.	c #944E11",
"w.	c #9A5921",
"x.	c #924C0F",
"y.	c #924809",
"z.	c #8F4400",
"A.	c #8F4605",
"B.	c #955013",
"C.	c #9D5F28",
"                                                  .                                                 ",
"                                                  +                                                 ",
"                                                  @                                                 ",
"                                                # @ $                                               ",
"                                      % & * = - ; + > , = ' ) !                                     ",
"                                ~ { , ] ^ / ( _ : @ < [ } | ^ + 1 2 3                               ",
"                            4 5 6 ^ | 7 8       9 0           a b ^ c 5 d                           ",
"                          e / + f g               @               h i ^ @ j                         ",
"                        k + l m                   @                   n | o p                       ",
"                      q ^ r                       s                       & + 5                     ",
"                    ( ^ *                                                   % o f t                 ",
"                  ( + }                                                       u + v                 ",
"                } + w                                                           x + r               ",
"              3 + y                                                               z o A             ",
"              B + C                                                                 5 c D           ",
"            E o F                                                                   8 ^ =           ",
"            | l                                                                       G / H         ",
"          j + I                                                                       J + _         ",
"          - +                                                                           K =         ",
"          L M                                                                           N + O       ",
"        i + H                                                                           P Q z       ",
"        & ^ R                                   S T U                                     f *       ",
"        { ^                                 V W       X Y                                 ' [       ",
"        * Z                                 `            .                                [ _       ",
"        ..'                               +.              @.                              M #.      ",
"$.%.&.*.=.0 *.&.-.;.                                      >.                      ,.%.&.*.| + '.-.%.",
").%.%.'.!.+ ~.-.-.{.                                                              ].%.^.'.1 c /.-.%.",
"        (.Q                               _.                                              * )       ",
"        { +                                 :.          <.                                = {       ",
"        [.^ d                                 }.|.1.2.3.                                  ; w       ",
"        4.] 3                                                                           5.^ 6.      ",
"          !.r                                                                           7.+         ",
"          - + 8.                                                                        9.2         ",
"          N c 0.                                                                      # ^ k         ",
"            1 ^                                                                       K ,           ",
"            e + (                                                                   7 ^ )           ",
"              5 + a.                                                                / /             ",
"              b.c.c d.                                                            - + e.            ",
"                f.g.9.                                                          ( o &               ",
"                  h.^ =                                                       i.+ j.                ",
"                    k.^ 5                                                   { + r                   ",
"                      l.+ ] d                     m.                    n.o.+ (                     ",
"                        p.c o q.                  @                   3 ^ o 4.                      ",
"                          r.5 @ ^ a               @               k.s.+ L t.                        ",
"                              % i.o + u.v.t.    w.@       ,.x.M + ^ 5 &                             ",
"                                  i y.y z.^ Q ' ; @ A.r l ^ Q = * z                                 ",
"                                          B.& M 2 o p k M } t.                                      ",
"                                                C.@                                                 ",
"                                                  @                                                 ",
"                                                  @                                                 "};
